<svg height="512" viewBox="0 0 64 64" width="512" xmlns="http://www.w3.org/2000/svg"><g fill="#78b9eb"><path d="m17 17v5h6v-5zm0-3h42a2.006 2.006 0 0 1 2 2v10h-8.35a14 14 0 0 0 -25.36.13l-.29-.13h-14v-12z"/><circle cx="40" cy="32" r="10"/><path d="m13 14v36h-8a2.006 2.006 0 0 1 -2-2v-32a2.006 2.006 0 0 1 2-2z"/><path d="m61 26v22a2.006 2.006 0 0 1 -2 2h-46v-24h14l.29.13a14 14 0 1 0 25.36-.13z"/></g><path d="m59 13h-41v-2a3 3 0 0 0 -3-3h-4a3 3 0 0 0 -3 3v2h-3a3 3 0 0 0 -3 3v32a3 3 0 0 0 3 3h54a3 3 0 0 0 3-3v-32a3 3 0 0 0 -3-3zm1 3v9h-6.744a14.983 14.983 0 0 0 -26.512 0h-12.744v-10h45a1 1 0 0 1 1 1zm-20 3a13 13 0 1 1 -13 13 13.015 13.015 0 0 1 13-13zm-30-8a1 1 0 0 1 1-1h4a1 1 0 0 1 1 1v2h-6zm-6 37v-32a1 1 0 0 1 1-1h7v34h-7a1 1 0 0 1 -1-1zm55 1h-45v-22h11.875a15 15 0 1 0 28.25 0h5.875v21a1 1 0 0 1 -1 1z" fill="#006df0"/><path d="m40 43a11 11 0 1 0 -11-11 11.013 11.013 0 0 0 11 11zm0-20a9 9 0 1 1 -9 9 9.01 9.01 0 0 1 9-9z" fill="#006df0"/><path d="m16 17v5a1 1 0 0 0 1 1h6a1 1 0 0 0 1-1v-5a1 1 0 0 0 -1-1h-6a1 1 0 0 0 -1 1zm2 1h4v3h-4z" fill="#006df0"/></svg>