<?xml version="1.0"?>
<svg xmlns="http://www.w3.org/2000/svg" xmlns:xlink="http://www.w3.org/1999/xlink" version="1.1" id="Layer_1" x="0px" y="0px" viewBox="0 0 300.003 300.003" style="enable-background:new 0 0 300.003 300.003;" xml:space="preserve" width="512px" height="512px"><g><g>
	<g>
		<path d="M150.001,0c-82.838,0-150,67.159-150,150c0,82.838,67.162,150.003,150,150.003c82.843,0,150-67.165,150-150.003    C300.001,67.159,232.846,0,150.001,0z M134.41,194.538c0,9.498-7.7,17.198-17.198,17.198s-17.198-7.7-17.198-17.198V105.46    c0-9.498,7.7-17.198,17.198-17.198s17.198,7.7,17.198,17.198V194.538z M198.955,194.538c0,9.498-7.701,17.198-17.198,17.198    c-9.498,0-17.198-7.7-17.198-17.198V105.46c0-9.498,7.7-17.198,17.198-17.198s17.198,7.7,17.198,17.198V194.538z" data-original="#000000" class="active-path" data-old_color="#000000" fill="#358DFB"/>
	</g>
</g></g> </svg>
