<svg height="480pt" viewBox="0 0 480 480" width="480pt" xmlns="http://www.w3.org/2000/svg"><path d="m112 112h16v16h-16zm0 0" fill="#9bc9ff"/><path d="m352 112h16v16h-16zm0 0" fill="#9bc9ff"/><path d="m112 352h16v16h-16zm0 0" fill="#9bc9ff"/><g fill="#1e81ce"><path d="m472 0h-464c-4.417969 0-8 3.582031-8 8v464c0 4.417969 3.582031 8 8 8h464c4.417969 0 8-3.582031 8-8v-464c0-4.417969-3.582031-8-8-8zm-8 464h-448v-448h448zm0 0"/><path d="m192 48h-144v144h144zm-16 128h-112v-112h112zm0 0"/><path d="m160 80h-80v80h80zm-16 64h-48v-48h48zm0 0"/><path d="m432 48h-144v144h144zm-16 128h-112v-112h112zm0 0"/><path d="m192 288h-144v144h144zm-16 128h-112v-112h112zm0 0"/><path d="m96 208h-48v40h48zm-16 24h-16v-8h16zm0 0"/><path d="m176 208h-64v40h64zm-16 24h-32v-8h32zm0 0"/><path d="m48 256h16v16h-16zm0 0"/><path d="m80 256h16v16h-16zm0 0"/><path d="m224 224h32v32h-32zm0 0"/><path d="m104 104h32v32h-32zm0 0"/><path d="m400 80h-80v80h80zm-16 64h-48v-48h48zm0 0"/><path d="m344 104h32v32h-32zm0 0"/><path d="m160 320h-80v80h80zm-16 64h-48v-48h48zm0 0"/><path d="m104 344h32v32h-32zm0 0"/><path d="m280 48h-80v48h80zm-16 32h-48v-16h48zm0 0"/><path d="m248 112h-48v64h48zm-16 48h-16v-32h16zm0 0"/><path d="m256 112h24v16h-24zm0 0"/><path d="m256 144h16v32h-16zm0 0"/><path d="m200 192h72v16h-72zm0 0"/><path d="m192 216h16v64h-16zm0 0"/><path d="m112 256h64v16h-64zm0 0"/><path d="m272 280h64v-64h-64zm16-48h32v32h-32zm0 0"/><path d="m352 256h80v-48h-80zm16-32h48v16h-48zm0 0"/><path d="m352 264h80v16h-80zm0 0"/><path d="m232 328h-16v64h64v-48h40v-16h-72v-56h-16v24h-24v16h24zm32 48h-32v-32h32zm0 0"/><path d="m272 296h88v16h-88zm0 0"/><path d="m384 328h-48v16h32v88h64v-64h-48zm32 88h-32v-32h32zm0 0"/><path d="m392 296h16v56h-16zm0 0"/><path d="m416 312h16v40h-16zm0 0"/><path d="m216 400h16v32h-16zm0 0"/><path d="m248 408h56v16h-56zm0 0"/><path d="m312 360h-16v40h40v32h16v-48h-40zm0 0"/><path d="m328 352h24v16h-24zm0 0"/></g></svg>