<svg id="Layers_1_" enable-background="new 0 0 64 64" height="512" viewBox="0 0 64 64" width="512" xmlns="http://www.w3.org/2000/svg"><path d="m16.13 49.75 6.27-3.72c.81.57 1.68 1.06 2.59 1.46v8.51h14v-8.51c.91-.41 1.79-.9 2.6-1.46l6.28 3.72 7.14-12.04-6.02-3.65c.09-.67.13-1.36.13-2.06s-.04-1.39-.13-2.06l6.02-3.65-7.14-12.04-6.28 3.72c-.81-.56-1.68-1.05-2.59-1.46v-8.51h-14.01v8.51c-.91.4-1.78.89-2.59 1.46l-6.27-3.72-7.14 12.04 6 3.64c-.09.68-.13 1.37-.13 2.07s.04 1.39.13 2.07l-6 3.64zm15.87-29.75c6.63 0 12 5.37 12 12s-5.37 12-12 12-12-5.37-12-12 5.37-12 12-12z" fill="#cce4ff"/><g fill="#007aff"><path d="m8.13 38.22 7.14 12.04c.136.228.356.393.613.458.257.066.529.027.758-.109l5.726-3.398c.521.336 1.064.642 1.623.916v6.873c0 .552.448 1 1 1h4c.552 0 1-.448 1-1s-.448-1-1-1h-3v-6.51c0-.396-.234-.756-.597-.916-.851-.374-1.665-.833-2.417-1.363-.323-.227-.748-.244-1.086-.042l-5.41 3.209-6.125-10.328 5.153-3.126c.339-.206.525-.593.473-.986-.08-.608-.121-1.26-.121-1.938s.041-1.33.121-1.939c.052-.393-.133-.78-.473-.986l-5.153-3.126 6.125-10.328 5.41 3.209c.338.201.764.185 1.086-.042.752-.53 1.566-.989 2.417-1.363.363-.16.597-.519.597-.916v-6.509h3.01c.552 0 1-.448 1-1s-.448-1-1-1h-4.01c-.552 0-1 .448-1 1v6.872c-.559.274-1.102.58-1.623.915l-5.726-3.398c-.229-.136-.501-.175-.758-.109-.257.065-.477.23-.613.458l-7.14 12.042c-.279.472-.127 1.081.342 1.365l5.455 3.31c-.044.499-.067 1.016-.067 1.545s.022 1.046.066 1.545l-5.455 3.31c-.468.285-.62.894-.341 1.365z"/><path d="m34.99 10h3v6.51c0 .393.23.75.589.912.875.394 1.696.855 2.441 1.371.321.222.744.237 1.079.038l5.42-3.211 6.125 10.329-5.173 3.137c-.34.206-.525.594-.473.988.08.599.121 1.247.121 1.927s-.041 1.329-.121 1.927c-.053.394.133.782.473.988l5.173 3.137-6.125 10.327-5.42-3.211c-.335-.199-.758-.184-1.079.038-.745.516-1.566.977-2.441 1.371-.358.162-.589.518-.589.912v6.51h-3c-.553 0-1 .448-1 1s.447 1 1 1h4c.553 0 1-.448 1-1v-6.876c.566-.28 1.111-.586 1.629-.915l5.741 3.401c.477.283 1.089.124 1.37-.35l7.14-12.04c.279-.472.127-1.081-.342-1.365l-5.474-3.319c.043-.493.065-1.007.065-1.536s-.022-1.043-.065-1.536l5.474-3.319c.469-.284.621-.893.342-1.365l-7.14-12.04c-.281-.474-.893-.631-1.37-.35l-5.741 3.401c-.517-.329-1.063-.635-1.629-.915v-6.876c0-.552-.447-1-1-1h-4c-.553 0-1 .448-1 1s.447 1 1 1z"/><path d="m43.987 32c0-6.615-5.382-11.997-11.997-11.997s-11.997 5.382-11.997 11.997 5.382 11.997 11.997 11.997 11.997-5.382 11.997-11.997zm-11.997 9.997c-5.512 0-9.997-4.485-9.997-9.997s4.485-9.997 9.997-9.997c5.513 0 9.997 4.485 9.997 9.997s-4.484 9.997-9.997 9.997z"/><path d="m31.99 24.006c-4.408 0-7.994 3.586-7.994 7.994s3.586 7.994 7.994 7.994 7.994-3.586 7.994-7.994-3.586-7.994-7.994-7.994zm0 13.988c-3.305 0-5.994-2.689-5.994-5.994s2.689-5.994 5.994-5.994c3.306 0 5.994 2.689 5.994 5.994s-2.688 5.994-5.994 5.994z"/><circle cx="32" cy="9" r="1"/><circle cx="32" cy="55" r="1"/></g></svg>