<svg height="512pt" viewBox="0 -96 512.00248 512" width="512pt" xmlns="http://www.w3.org/2000/svg"><path d="m440.613281 251.394531c-1.339843-48.621093-21.585937-92.867187-53.917969-125.207031-34.4375-34.429688-81.019531-53.996094-130.359374-53.996094-47.828126 0-94.921876 18.554688-130.359376 53.996094-34.515624 34.519531-52.648437 79.617188-53.917968 125.214844-.070313 2.453125-2.097656 4.390625-4.546875 4.390625h377.644531c-2.453125.003906-4.476562-1.945313-4.542969-4.398438zm0 0" fill="#e4eaf8"/><path d="m159.976562 128.269531c31.273438-32.480469 71.625-51.292969 113.542969-55.273437-5.679687-.527344-11.414062-.804688-17.183593-.804688-47.828126 0-94.921876 18.554688-130.359376 53.996094-34.511718 34.519531-52.648437 79.617188-53.917968 125.214844-.066406 2.453125-2.09375 4.390625-4.546875 4.390625h38.644531c1.832031-46.492188 19.921875-92.308594 53.820312-127.523438zm0 0" fill="#d8dce5"/><path d="m432.089844 80.777344c-46.726563-46.714844-109.636719-72.808594-175.753906-72.808594v67.597656c48.433593 0 94.15625 19.207032 127.960937 53.003906zm0 0" fill="#feca57"/><path d="m80.574219 80.773438 47.800781 47.796874c33.988281-33.988281 79.820312-53.003906 127.960938-53.003906v-67.597656c-62.613282 0-123.492188 22.402344-175.761719 72.804688zm0 0" fill="#15ba8b"/><path d="m80.574219 80.773438 47.800781 47.796874c33.988281-33.988281 79.820312-53.003906 127.960938-53.003906v-67.597656c-62.613282 0-123.492188 22.402344-175.761719 72.804688zm0 0" fill="#15ba8b"/><path d="m7.835938 251.199219c-.050782 2.519531 1.953124 4.597656 4.472656 4.597656h58.675781c2.40625 0 4.394531-1.90625 4.460937-4.3125 1.246094-44.757813 19.050782-89.027344 52.925782-122.914063l-47.796875-47.796874c-44.933594 44.933593-71.363281 105.535156-72.738281 170.425781zm0 0" fill="#54a0ff"/><path d="m111.363281 78.875c42.34375-40.832031 90.28125-63.46875 140.230469-70.851562-60.941406 1.105468-120.070312 23.621093-171.019531 72.75l15.203125 15.199218c4.917968-5.914062 10.113281-11.621094 15.585937-17.097656zm0 0" fill="#11aa7b"/><path d="m42.359375 255.796875c-2.546875 0-4.574219-2.101563-4.519531-4.644531 1.222656-57.691406 22.039062-112.019532 57.9375-155.179688l-15.203125-15.199218c-44.929688 44.933593-71.359375 105.535156-72.734375 170.425781-.054688 2.519531 1.953125 4.597656 4.46875 4.597656h58.675781zm0 0" fill="#338def"/><path d="m432.097656 80.773438-47.800781 47.796874h.003906c31.738281 31.746094 51.609375 75.179688 52.925781 122.90625.066407 2.410157 2.050782 4.320313 4.460938 4.320313h58.675781c2.515625 0 4.527344-2.078125 4.472657-4.59375-1.351563-63.296875-26.746094-124.449219-72.738282-170.429687zm0 0" fill="#ff6b6b"/><path d="m329.386719 264.480469 36.304687-117.464844c1.503906-4.863281-3.054687-9.417969-7.917968-7.917969l-117.464844 36.304688c-51.242188 15.835937-67.257813 80.484375-29.332032 118.410156 37.925782 37.925781 102.574219 21.910156 118.410157-29.332031zm0 0" fill="#ff6b6b"/><path d="m240.980469 293.8125c-37.925781-37.925781-21.910157-102.574219 29.332031-118.410156l95.613281-29.550782c.515625-4.390624-3.683593-8.132812-8.152343-6.753906l-117.464844 36.304688c-51.242188 15.835937-67.257813 80.484375-29.332032 118.410156 18.324219 18.324219 42.890626 24.054688 65.171876 19.304688-12.679688-2.734376-24.90625-9.039063-35.167969-19.304688zm0 0" fill="#ee5253"/><path d="m282.039062 222.746094c-11.9375-11.933594-31.285156-11.933594-43.222656 0-11.933594 11.933594-11.933594 31.285156 0 43.21875 11.9375 11.9375 31.285156 11.9375 43.222656 0 11.933594-11.933594 11.933594-31.285156 0-43.21875zm0 0" fill="#ee5253"/><path d="m275.710938 217.890625c-11.6875-6.757813-26.890626-5.140625-36.890626 4.859375-11.933593 11.933594-11.933593 31.28125 0 43.21875 10 10 25.203126 11.613281 36.890626 4.859375-20.433594-11.816406-20.265626-41.222656 0-52.9375zm0 0" fill="#d83941"/><path d="m11.972656 262.828125h172.765625c7.226563 27.800781 29.328125 49.238281 55.933594 56.300781 4.003906 1.058594 8.109375-1.324218 9.171875-5.328125 1.066406-4.003906-1.320312-8.109375-5.324219-9.171875-10.828125-2.875-20.441406-8.457031-28.570312-16.585937-33.257813-33.253907-20.144531-89.511719 23.644531-105.074219 2.0625-.734375-5.851562 1.742188 117.945312-36.515625-2.300781 7.429687-34.332031 111.078125-35.652343 115.34375-6.710938 21.71875-23.921875 37.847656-46.035157 43.152344-4.027343.964843-6.511718 5.011719-5.546874 9.039062.964843 4.027344 5.011718 6.511719 9.042968 5.546875 27.320313-6.550781 48.582032-26.476562 56.875-53.304687l1.050782-3.402344h162.753906c6.710937 0 12.113281-5.503906 11.972656-12.253906-2.96875-138.992188-116.414062-250.574219-256-250.574219-136.707031 0-252.996094 108.835938-255.99609375 250.574219-.14453125 6.722656 5.23828175 12.253906 11.96874975 12.253906zm484.941406-15h-52.632812c-1.96875-45.542969-20.167969-87.566406-49.816406-119.621094 25.996094-25.996093 22.070312-22.070312 37.214844-37.214843 40.210937 42.734374 63.246093 98.039062 65.234374 156.835937zm-233.414062-232.714844c59.066406 1.796875 114.503906 24.761719 157.566406 65.277344l-37.207031 37.207031c-33.023437-30.550781-75.394531-48.117187-120.359375-49.855468zm-7.527344 67.484375h.046875c93.429688 0 168.945313 73.398438 173.238281 165.230469h-87.351562l30.617188-99.0625c1.519531-4.917969.199218-10.230469-3.4375-13.867187-3.636719-3.636719-8.949219-4.953126-13.863282-3.433594-127.988281 39.554687-122.347656 37.347656-131.03125 41.902344-28.292968 14.839843-43.5625 44.613281-41.816406 74.460937h-99.632812c4.402343-92.6875 80.804687-165.230469 173.230468-165.230469zm-7.472656-67.488281v52.636719c-45.980469 1.785156-87.992188 19.917968-120.359375 49.851562-25.890625-25.890625-26.152344-26.148437-37.128906-37.125 45.523437-41.691406 98.441406-63.652344 157.488281-65.363281zm-168.179688 75.882813 37.214844 37.214843c-29.726562 32.179688-47.839844 74.136719-49.816406 119.621094h-52.636719c1.980469-58.777344 25.015625-114.078125 65.238281-156.835937zm0 0"/><path d="m291.289062 265.691406c2.375-3.394531 1.550782-8.070312-1.84375-10.445312-3.390624-2.375-8.070312-1.550782-10.445312 1.84375-8.289062 11.847656-25.121094 13.195312-35.210938 3.105468-8.992187-8.992187-8.992187-23.621093 0-32.613281 10.09375-10.09375 26.917969-8.734375 35.210938 3.109375 2.375 3.390625 7.054688 4.214844 10.445312 1.839844 3.394532-2.375 4.21875-7.054688 1.84375-10.445312-13.667968-19.503907-41.429687-21.789063-58.105468-5.109376-14.839844 14.839844-14.839844 38.984376 0 53.824219 16.710937 16.714844 44.480468 14.347657 58.105468-5.109375zm0 0"/></svg>